<svg viewBox="0 0 150 150"  xmlns="http://www.w3.org/2000/svg">
        <path fill="#F3E9DC" d="M29.5,-43.8C42.7,-43.4,61,-44.6,70.3,-37.5C79.7,-30.5,80.1,-15.3,79.7,-0.2C79.4,14.8,78.3,29.7,70.8,40C63.3,50.2,49.4,56,36.6,63.6C23.7,71.3,11.9,80.9,0.5,80.2C-10.9,79.4,-21.9,68.1,-34.2,60.1C-46.4,52.1,-60,47.3,-69.8,37.8C-79.6,28.3,-85.5,14.2,-87,-0.8C-88.4,-15.8,-85.3,-31.7,-75.3,-40.7C-65.2,-49.7,-48.2,-51.9,-34.5,-51.9C-20.8,-52,-10.4,-49.9,-1.1,-47.9C8.1,-46,16.3,-44.1,29.5,-43.8Z" transform="translate(70 50)" />
      </svg>